<svg xmlns="http://www.w3.org/2000/svg" width="153" height="153" xmlns:v="https://vecta.io/nano"><path d="M0 0h153v153H0V0z" fill="#252239"/><path d="M0 0h153v153H0V0zm28.285 34.336C14.211 50.743 11.684 68.124 13 89c.627 4.62 2.071 8.761 4 13l1.18 2.762c7.587 15.736 21.733 26.898 37.695 33.301 16.093 4.811 35.945 3.904 50.939-4.021 9.791-5.692 19.67-14.013 25.186-24.041v-2h2c7.202-20.617 10.256-38.625.375-59.125C130.868 41.941 126.633 36.392 121 31l-1.785-1.879c-11.258-11.06-27.841-16.285-43.277-16.496-18.459.167-35.021 8.459-47.652 21.711z" fill="#010620"/><path d="M128 44c3.8 1.267 4.725 2.738 7 6l2.688 6.438 1.262 3.309c5.293 16.39.624 32.648-4.949 48.254h-2l-.742 2.195C127.703 118.122 119.746 124.687 113 130l-1.68 1.363C97.927 140.977 79.774 141.648 64 140c-16.205-2.75-30.36-13.407-40.25-26.187C17.73 105.107 13.368 95.662 13 85h2c1.461 2.647 2 3.894 2 7l3-1-.032-2.263-.093-10.112-.051-3.562-.02-3.398-.032-3.142C20 66 20 66 22 64l2.352 2.367 8.745 8.784 3.765 3.785c9.06 9.167 9.06 9.167 18.637 17.784C57.441 98.376 59.233 100.16 61 102l2-3 1.688.938c2.438 1.12 4.675 1.623 7.313 2.063v3l1.828-.219 2.422-.281 2.391-.281C81 104 81 104 85 104c2.163-1.825 4.067-3.626 6.016-5.66l1.741-1.766 5.493-5.637 7.203-7.348 1.744-1.78c3.595-3.65 7.267-7.139 11.206-10.42 4.763-4.145 8.044-8.18 9.596-14.389l1-3-1.562-3.5L126 47l2-3z" fill="#0b0c2e"/><path d="M113 24c7.611 5.901 18.173 14.162 20 24l-1.375-1.5c-1.501-1.726-1.501-1.726-3.625-1.5l-1 3 1.625 2.625c1.715 4.209 1.203 5.951-.406 10.07C126.1 64.702 123.172 67.8 120 71l-2.312 2.438c-2.348 2.239-4.747 4.381-7.18 6.527-3.778 3.391-7.378 6.89-10.902 10.543L96.9 93.305l-4.1 4.293-4.07 4.223-2.394 2.508C84 106 84 106 81.337 105.73L79 105l-4 1-3-1-1-3-2.875.125C65 102 65 102 63 100l-2 3-1.906-1.941-2.594-2.621-2.531-2.566c-2.132-2.109-4.348-4.077-6.625-6.027-5.376-4.66-10.339-9.731-15.344-14.781l-2.926-2.939L22 65c-1.284 1.06-1.284 1.06-1.114 3.5l.016 3.285.01 3.545.025 3.732.014 3.744L21 92h-4l-2-7h-2c-.417-11.618-.715-22.121 4-33l1.215-2.812C26.122 33.052 40.976 21.104 57.75 15.25 76.111 9.223 97.257 13.273 113 24zm-37-7l-1 3-3.187-.25c-13.441.071-26.323 7.369-35.687 16.563-7.857 7.921-7.857 7.921-11.113 18.109 1.381 3.602 3.802 5.858 6.551 8.453l1.654 1.607c3.495 3.371 7.093 6.599 10.792 9.745 3.338 2.972 6.423 6.197 9.563 9.375 2.045 2.018 4.118 3.913 6.305 5.773C65.572 94.24 70.746 99.667 76 105c3.621-3.03 7.129-6.068 10.438-9.437C88.709 93.251 91.025 91.09 93.5 89c4.215-3.623 8.092-7.554 12-11.5 5.004-5.054 10.099-9.871 15.5-14.5 1.372-1.188 2.727-2.396 4.063-3.625l1.785-1.602c1.395-1.76 1.395-1.76.992-4.187C123.978 41.695 113.921 31.717 103 26c-8.223-3.6-16.009-5.798-25-6l-1-3h-1z" fill="#e0f1f6"/><path d="M20 66h1v7l1.743-.72C25 72 25 72 27.015 73.399l2.095 2.116 2.285 2.293 2.355 2.441 2.402 2.395C42 88.593 42 88.593 42 92l1.688.188C46.972 93.342 48.654 95.474 51 98l1.813 1.688C54 101 54 101 54 103l3 1c2.466 3.379 3 4.706 3 9l1.813.313c3.272 1.028 4.614 2.752 6.375 5.625C69 121 69 121 69 125l3 1v5l-10-1c8.64 2.514 17.088 2.184 26 2-3.291 2.194-4.195 2.232-8 2.16l-2.937-.033-3.062-.064-6-.09-2.687-.054c-2.473-.022-2.473-.022-5.312 1.082l-3-1c.959 2.331.959 2.331 4 4-13.417-.61-24.753-10.419-33.687-19.625C19.647 109.556 13 96.887 13 85h2c1.461 2.647 2 3.894 2 7l3-1V66z" fill="#131d3e"/><path d="M128 44c3.8 1.267 4.725 2.738 7 6l2.688 6.438 1.262 3.309c5.293 16.39.624 32.648-4.949 48.254h-2l-.742 2.195C127.703 118.122 119.746 124.687 113 130l-1.68 1.363C98.322 140.693 79.383 142.182 64 140l-2-2 2.013.048c17.481 1.3 17.481 1.3 33.987-3.048 1.334-2.52 1.334-2.52 2-5l-3.25 1.063c-4.673 1.168-4.673 1.168-7.75-.062l7-3-.352-3.805c-.906-14.163-.906-14.163 2.543-18.684C104.816 99 104.816 99 107 99v24c13.928-10.833 22.2-22.341 25-40 .382-6.169.272-11.951-1-18l-2.719 2.735-10.086 10.125-4.347 4.367-6.286 6.308-1.93 1.945c-3.804 3.805-7.719 7.416-11.807 10.915C85.651 108.579 81.534 117.296 77 127c-3.888-3.134-5.333-7.904-7.219-12.375-1.967-4.447-4.228-7.217-7.781-10.625-.312-2.812-.312-2.812 0-5l2.188.938c2.616.988 5.064 1.591 7.813 2.063v3l1.828-.219 2.422-.281 2.391-.281C81 104 81 104 85 104c2.163-1.825 4.067-3.626 6.016-5.66l1.741-1.766 5.493-5.637 7.203-7.348 1.744-1.78c3.595-3.65 7.267-7.139 11.206-10.42 4.763-4.145 8.044-8.18 9.596-14.389l1-3-1.562-3.5L126 47l2-3z" fill="#07387f"/><path d="M76 20c2.724 2.353 3.814 4.625 5 8l-2-1-.055 12.28-.021 4.179-.022 6.002-.016 3.65C78.799 55.941 78.799 55.941 80 58h-3v24l4-1a56.54 56.54 0 0 1-4 7c-5.857-2.166-10.824-5.523-16.062-8.875l-3.01-1.895-2.9-1.848-2.633-1.675C49.992 71.994 48.02 70.144 46 68l1.155-1.838 23.539-38.111 1.673-2.765 1.472-2.441C75 21 75 21 76 20z" fill="#1fe8f7"/><path d="M80 22c10.96-.996 22.323 4.369 30.672 11.18 7.665 6.756 7.665 6.756 10.328 10.82v2h2l4 9-1.863 1.793-2.449 2.395-2.426 2.355c-2.172 2.36-3.723 4.654-5.262 7.457-6.39-.353-6.39-.353-9.073-3.199l-1.689-2.918-1.936-3.254-1.99-3.504-2.088-3.541-4.199-7.153C91.13 40.527 88.077 35.73 85 30.938c-5-7.801-5-7.801-5-8.937z" fill="#d35355"/><path d="M73 22c-3.986 7.78-8.542 15.127-13.236 22.493L44 70c-5.227-1.476-8.168-4.822-11.812-8.625l-1.811-1.852L26 55c5.454-13.621 15.428-23.224 28.672-29.207C60.905 23.184 66.193 21.842 73 22z" fill="#fbc050"/><path d="M78 26c3.582 1.92 5.675 3.467 7.691 7l1.407 2.413L88.563 38l3.145 5.391 1.627 2.795c2.711 4.581 5.558 9.074 8.416 13.564l1.592 2.508L107 68c-2.796 2.971-5.617 5.206-9.062 7.383l-2.914 1.848L92 79.125l-3.023 1.918C80.948 86.112 80.948 86.112 77 88v-5l2 1v-2h-2V58l2-1-1-1c-.088-2.219-.107-4.44-.098-6.66l.004-2.014.031-6.389.014-4.322L78 26z" fill="#0984ef"/><path d="M21 64c7.198 5.935 13.63 12.575 20.174 19.213C46.282 88.366 51.475 93.298 57 98c9.644 8.299 14.702 16.073 19 28 2.212-2.212 3.146-4.431 4.41-7.256 4.645-10.202 10.768-16.973 19.291-24.183 6.783-5.79 12.973-12.16 19.236-18.498l6.777-6.84 1.565-1.591c1.221-1.23 2.468-2.434 3.72-3.632h1v9l-2.562.563c-4.008 1.676-6.045 3.802-8.922 6.977C119 82 119 82 117 82l-.812 1.813c-1.181 2.175-2.456 3.456-4.187 5.188l-1 3-2.937.938c-3.12.699-3.12.699-4.035 2.832L103 98c-1.13 1.61-2.299 3.193-3.5 4.75l-1.844 2.422L96 107h-2c-1.094 2.553-1.971 4.804-2.375 7.563C91 117 91 117 88.938 119c-2.216 1.868-2.216 1.868-2.187 4.75L87 126l-2.812.188L81 127l-1.344 2.523C78 132 78 132 75.363 132.559c-6.077-.241-11.54-.767-17.363-2.559l1-14h1v13l12 2c-.959-2.331-.959-2.331-4-4l3-1-2-1c-.841-1.963-1.465-3.961-2.121-5.992C65.878 116.722 64.995 115.5 63 114h-4c-1-4.75-1-4.75-1-7l-2-2-3-3.375-1.562-1.773C50 98 50 98 48.996 95.832c-.91-2.178-.91-2.178-3.934-2.77C42 92 42 92 40.742 89.891c-2.379-3.946-5.437-6.954-8.68-10.203l-1.881-1.955-1.834-1.846-1.656-1.681C24.803 72.613 24.803 72.613 21 73v-9z" fill="#040820"/><path d="M128 44c3.893 1.298 4.704 2.591 7 6 4.23 8.656 4.23 8.656 3.605 12.309L138 64l-2-4-2 1 .048 1.905c.646 29.797.646 29.797-8.048 43.095l-1-2c.696-1.883 1.483-3.734 2.313-5.562C132.008 87.455 133.508 76.845 131 65l-2.719 2.735-10.086 10.125-4.347 4.367-6.286 6.308-1.93 1.945c-3.804 3.805-7.719 7.416-11.807 10.915C85.651 108.579 81.534 117.296 77 127c-3.888-3.134-5.333-7.904-7.219-12.375-1.967-4.447-4.228-7.217-7.781-10.625-.312-2.812-.312-2.812 0-5l2.188.938c2.616.988 5.064 1.591 7.813 2.063v3l1.828-.219 2.422-.281 2.391-.281C81 104 81 104 85 104c2.163-1.825 4.067-3.626 6.016-5.66l1.741-1.766 5.493-5.637 7.203-7.348 1.744-1.78c3.595-3.65 7.267-7.139 11.206-10.42 4.763-4.145 8.044-8.18 9.596-14.389l1-3-1.562-3.5L126 47l2-3z" fill="#78b7db"/><path d="M132 70h1c.826 13.599-1.609 27.86-10 39-2.062 1.355-2.062 1.355-4 2l-2-1v3h-7l2-1v-2h-2l-.367-2.52-.508-3.293-.492-3.27c-.484-3.091-.484-3.091-2.633-5.918l7-1-2-5c3.787-4.639 7.696-8.649 12.266-12.52 1.824-1.518 1.824-1.518 3.734-3.48 2.625-.125 2.625-.125 5 0v-3z" fill="#0a1649"/><path d="M13 85h2c1.461 2.647 2 3.894 2 7 3.278-.752 3.278-.752 5-4l.445 1.801c4.248 15.699 12.976 26.945 26.875 35.25 5.254 2.928 10.84 4.6 16.68 5.949l2.32.59c3.837.587 7.618.515 11.492.473l2.389-.014L88 132c-3.291 2.194-4.195 2.232-8 2.16l-2.937-.033-3.062-.064-6-.09-2.687-.054c-2.473-.022-2.473-.022-5.312 1.082l-3-1c.959 2.331.959 2.331 4 4-13.417-.61-24.753-10.419-33.687-19.625C19.647 109.556 13 96.887 13 85z" fill="#1776b6"/><path d="M119 33c5.879 1.004 8.167 4.203 11.582 8.711 1.338 2.16 1.982 3.806 2.418 6.289l-1.375-1.5c-1.501-1.726-1.501-1.726-3.625-1.5l-1 3 1.625 2.625c1.715 4.209 1.203 5.951-.406 10.07C126.1 64.702 123.172 67.8 120 71l-2.312 2.438c-2.35 2.241-4.752 4.382-7.187 6.527-3.768 3.381-7.336 6.875-10.824 10.543l-2.678 2.797-4.047 4.293-4.025 4.223-2.362 2.508C84 106 84 106 80.192 105.761L77 105c5.117-6.115 10.414-11.836 16.5-17 4.927-4.234 9.422-8.897 13.99-13.51 4.916-4.945 10.042-9.544 15.354-14.057 1.934-1.686 1.934-1.686 4.156-4.434-.539-7.426-6.281-14.555-11-20h3v-3z" fill="#9fcfe8"/><path d="M136 58l.875 1.938c.953 2.215.953 2.215 3.125 3.063 3.534 15.548-.79 30.411-6 45h-2l-.562 2c-2.067 4.313-5.203 7.515-8.437 11 0-3 0-3 2-5 .373-1.658.707-3.326 1-5l1-2-5 2v4c-5 4-5 4-9 4l1.793-1.977 4.887-5.434 3.891-4.273c8.887-9.865 9.764-22.789 9.555-35.441l-.027-3.187L133 61l3-1v-2z" fill="#10579d"/><path d="M84 25c5.55-.493 9.084 1.07 13.875 3.563l2.137 1.093C106.67 33.167 112.832 36.925 116 44h-2l-.187 2.625C112.769 50.96 111.007 52.761 108 56c-3.588-3.389-6.457-6.761-9-11v-2l-1.812-.687C94.402 40.641 93.625 38.794 92 36l-2.625-2.625C87 31 87 31 86 28h-2v-3z" fill="#f68b49"/><path d="M44 68c4.403 2.141 8.516 4.693 12.688 7.25l2.448 1.489c4.83 2.954 9.536 5.995 14.04 9.433 2.644 1.2 4.093.712 6.824-.172 2.486-1.378 2.486-1.378 4.813-3.062l2.395-1.66L89 80l1 3 3 1a244.62 244.62 0 0 1-10.625 12l-2.227 2.375C78 100 78 100 76.105 99.825c-2.624-1.028-3.976-2.37-5.933-4.395l-2.176-2.219-2.246-2.336c-4.851-4.997-9.716-9.856-15.015-14.381C48.343 74.435 46.131 72.33 44 70v-2z" fill="#060922"/><path d="M39 72c7.915 2.399 13.929 9.714 19.813 15.25l2.104 1.975C66.385 94.379 71.743 99.629 77 105l-2 1-3-1-1-3-2.875.125C65 102 65 102 63 100l-2 3-1.906-1.941C53.207 95.109 53.207 95.109 47 89.5c-4.939-4.221-9.451-8.867-14-13.5l3-1c1.667-1.5 1.667-1.5 3-3z" fill="#bde8f3"/><path d="M77 58c3.857.771 6.74 1.588 10.301 3.066l2.959 1.221 3.053 1.275 3.111 1.287L104 68v2l-12.375 6-3.562 1.734-3.398 1.641-3.142 1.523C79 82 79 82 77 82V58z" fill="#03041c"/><path d="M76 58v24c-3.996-1.332-7.444-2.584-11.18-4.383l-2.812-1.348-2.883-1.395-2.953-1.418L49 70v-2l11.813-5 3.393-1.445 3.252-1.367 2.999-1.27C73 58 73 58 76 58z" fill="#052443"/><path d="M109 68l4 2-8.533 8.588-2.892 2.912c-5.164 5.209-10.355 10.305-15.927 15.077-1.972 1.703-3.825 3.5-5.648 5.361l-1.75 1.777L77 105c-4.578-3.745-8.786-7.734-12.937-11.937-3.884-3.932-7.826-7.68-12.039-11.262C47.827 78.066 43.934 74.007 40 70l2-1c4.499 1.985 7.54 5.442 10.91 8.906 1.882 1.886 3.809 3.622 5.84 5.344 2.569 2.181 4.957 4.454 7.281 6.891l1.61 1.675 3.146 3.361C72.403 96.919 72.403 96.919 75 99c3.532-.269 5.214-1.868 7.609-4.352l2.039-2.082 2.102-2.191c4.654-4.805 9.328-9.442 14.448-13.754 2.916-2.624 5.324-5.586 7.802-8.621z" fill="#361d49"/><path d="M62 99l2.188.938c2.616.988 5.064 1.591 7.813 2.063v3l1.828-.289 2.422-.336 2.391-.352c2.681-.027 4.086.611 6.359 1.977-.506 5.534-1.956 9.56-4.562 14.438l-.998 1.928L77 127c-3.888-3.134-5.333-7.904-7.219-12.375-1.967-4.447-4.228-7.217-7.781-10.625-.312-2.812-.312-2.812 0-5z" fill="#4cabdd"/><path d="M13 85h2c1.461 2.647 2 3.894 2 7 3.278-.752 3.278-.752 5-4l.445 1.801C25.332 100.468 30.322 109.072 38 117c-2 1-2 1-6 1l-1-2-2 1 8 8c-3 0-3 0-4.578-1.18C22.035 113.288 13.523 100.161 13 85z" fill="#5fa7d3"/><path d="M92 51c2.168-.004 2.168-.004 5 1 2.116 2.48 3.688 5.244 5.313 8.063l1.377 2.299L107 68c-2.796 2.971-5.617 5.206-9.062 7.383l-2.914 1.848L92 79.125l-3.023 1.918C80.948 86.112 80.948 86.112 77 88v-5l2 1 .705-1.839c1.647-2.748 3.125-3.397 6.014-4.739l2.824-1.328L91.5 74.75l2.957-1.391C101.686 70 101.686 70 104 70v-2l-1.937-.25C97.795 66.705 93.969 64.859 90 63v-2l-4-2 6-8z" fill="#0c57b8"/><path d="M23 76c3.767 1.739 6.212 3.903 9 7v2l1.75.75C36.3 87.167 38.018 88.876 40 91c-1.47 3.399-3.38 5.65-6 8.25l-2.125 2.141C30 103 30 103 28 103c-4.216-9.006-5.334-17.073-5-27z" fill="#088dca"/><path d="M46 99l7 6 2.422 1.766c2.602 3.684 1.996 7.605 1.828 11.984l-.055 2.691L57 128l-7-3v-2h-4V99z" fill="#56a3db"/><path d="M117 40l4 4v2h2l4 9-1.863 1.793-2.449 2.395-2.426 2.355c-2.172 2.36-3.723 4.654-5.262 7.457-2.939.154-4.36.169-7-1-2.819-3.219-4.838-6.847-6.937-10.562l-1.783-3.021L95 47l3-1 1.137 1.793c3.47 5.392 3.47 5.392 7.738 10.145L109 60v2c4.465-1.364 6.21-3.344 9-7h2c.284-4.931.134-7.213-3-11v-4z" fill="#9e2e64"/><path d="M129 75h1v12l-2 1 .125 2.688c-.124 3.285-.739 5.367-2.125 8.313h-2l-1 4-10-10c2.107-4.215 3.429-5.143 7-8 1.87-2.023 3.664-4.097 5.449-6.195C127 77 127 77 129 75z" fill="#0c52a0"/><path d="M100 130l1 3h-2l-1 3c-8.109 3.38-16.919 3.464-25.562 3.375l-3.518.035-3.361-.012-3.022-.01C60 139 60 139 58.153 137.6 57 136 57 136 57 134l2.438.063c2.496.234 2.496.234 3.563-1.062 1.854-.087 3.711-.107 5.566-.098l3.408.01 3.588.025 3.6.014L88 133l1-2c3.742-.706 7.188-1 11-1z" fill="#092c72"/><path d="M77 21l4 5-1 2-1-1-.055 12.28-.021 4.179-.022 6.002-.016 3.65C78.799 55.941 78.799 55.941 80 58h-3v24l4-1a56.54 56.54 0 0 1-4 7c-5.857-2.166-10.824-5.523-16.062-8.875l-3.01-1.895-2.9-1.848-2.633-1.675C49.992 71.994 48.02 70.144 46 68l4-6 1 2-1 2 4 1-5 1v2l1.633.491c5.954 1.877 11.39 4.338 16.93 7.196L76 82l-1-25h2V21z" fill="#1a97ea"/><path d="M111 91l2 1v2l-6 2 2 2c1.142 3.998 1.081 7.865 1 12h2v2l5 1v-3l3 1c-1.498 3.615-3.575 5.686-6.5 8.25l-2.406 2.141C109 123 109 123 107 123l-1-23-8 8-2-2 4.125-5.812 1.148-1.658c2.77-3.809 5.309-5.884 9.727-7.529z" fill="#020b3b"/><path d="M111 75l1 3-11.578 12.018-3.931 4.095-5.682 5.86-1.746 1.872C87.428 103.48 85.998 104.836 84 106c-3.926-.123-3.926-.123-7-1 3.074-3.674 6.186-7.289 9.5-10.75l1.594-1.672C90 91 90 91 92.902 89.609c3.439-1.787 5.516-3.793 8.16-6.609 3.117-3.309 5.931-5.829 9.938-8z" fill="#96cfea"/><path d="M45 83c3.494 1.325 6.152 3.627 9 6v-2c3.169.577 4.782 1.416 7.016 3.723l1.602 1.631 1.633 1.709 1.68 1.721L70 100l-3 2-4-2-2 3-1.906-1.941c-4.736-4.786-9.492-9.406-14.695-13.684L43 86v-2l2-1z" fill="#88d5f5"/><path d="M107 99l.125 7.875.051 2.262L107 115c-2.255 2.255-4.005 2.977-7 4h-3v9h-1c-1.617-17.497-1.617-17.497 2.191-22.488C104.816 99 104.816 99 107 99z" fill="#3687c4"/><path d="M46 96l-1 2-.562 6.125-.254 3.32L44 110h-3v2l2 1-7 1-1-3-2-1 3-4-4-1 2-5h2v-2h2v-2c3.29-1.097 4.713-.8 8 0z" fill="#175398"/><path d="M115 96c1.922 1.996 1.922 1.996 3.75 4.438l1.859 2.434C122 105 122 105 122 107l-2 1-1 3-2-1v3h-7l2-1v-2h-2l-.402-2.555-.535-3.32-.527-3.305c-.391-2.759-.391-2.759-1.535-4.82 3.078-.989 4.966-1.166 8 0z" fill="#072a6e"/><path d="M112 79h2c-.577 3.134-1.391 4.763-3.66 6.988l-1.644 1.631-1.758 1.694-1.79 1.754C100.899 95.205 96.545 99.189 92 103l-4 3.438L85 109c-.815-1.647-.815-1.647-1-4 1.615-2.102 3.158-3.811 5.047-5.641l1.597-1.597 3.37-3.318 5.143-5.108 3.266-3.227 1.553-1.553C107.653 81 107.653 81 111 81l1-2z" fill="#4ab4e4"/><path d="M20 66h1v7l1.743-.726C25 72 25 72 27.015 73.447l2.095 2.174 2.285 2.334 2.355 2.482 2.402 2.471L42 89l-1 3-3-2v-2l-1.687-.687C33.353 85.633 31.376 83.432 29 81l-6-5 .402 2.965L26 100c-7.744-9.328-6.342-22.604-6-34z" fill="#054e8d"/><path d="M73 22c-2 3-2 3-4.109 3.484l-2.641.266c-14.119 2.31-24.668 10.323-33.004 21.629C31.441 50.171 30.052 52.843 29 56l-3-1c5.454-13.621 15.428-23.224 28.672-29.207C60.888 23.191 66.217 21.842 73 22z" fill="#dd6935"/><path d="M83 106h2c-.506 5.534-1.956 9.56-4.562 14.438l-.998 1.928L77 127c-3.239-2.586-3.793-5.226-4.687-9.187l-.762-3.293L71 112l3.188-.187c4.468-.952 5.824-2.482 8.813-5.812z" fill="#2f8fc6"/><path d="M73 21v1l-2.5.375c-14.956 2.671-28.004 8.563-37.234 20.953C30.575 47.197 28.773 50.569 27 55l13 13c-4.388 0-6.297-2.706-9.25-5.625l-1.719-1.582C27.471 59.26 26.161 57.855 25 56c-.03-8.098 6.265-14.448 11.5-20.062C45.307 27.436 60.25 17.21 73 21z" fill="#414355"/><path d="M107 115v8l4-3 2 1c-4.532 6.086-4.532 6.086-10 7-2.566 1.02-5.077 2.131-7.598 3.258C93 132 93 132 89 131l8-2v-10c8.875-4 8.875-4 10-4z" fill="#1e5ca1"/><path d="M136 58l.875 1.938c.953 2.215.953 2.215 3.125 3.063 2.83 12.451.481 24.036-3 36-1.2-3.6-.365-5.585.52-9.172.944-5.557.624-11.211.48-16.828l-4 3c-.847-5.081-1.09-9.848-1-15l3-1v-2z" fill="#2b8dbd"/><path d="M109 125l2 2c-1.299 4.007-2.45 5.758-6 8-12.763 5.42-27.256 6.949-41 5l-2-2 2.013.048c17.481 1.3 17.481 1.3 33.987-3.048 1.334-2.52 1.334-2.52 2-5l-2-1 1.898-.621 2.477-.816 2.461-.809c2.174-.706 2.174-.706 4.164-1.754z" fill="#0a569d"/><path d="M80 22c10.871-.988 22.279 4.302 30.555 11.098A231.25 231.25 0 0 1 117 39l-1 4-1.187-1.469c-4.381-4.909-8.986-8.004-14.812-10.906l-2.012-1.01C93.41 27.425 88.954 26.095 84 25l-1 3-3-6z" fill="#cb4a43"/><path d="M13 85h2c1.461 2.647 2 3.894 2 7 3.278-.752 3.278-.752 5-4l.551 1.977c1.163 4.044 2.311 7.747 4.199 11.523L28 104l-1 2-1.187-2.437c-1.582-2.793-1.582-2.793-4.5-3.375L19 100l2 7c-6.209-5.5-7.491-14.114-8-22z" fill="#8ec5e3"/><path d="M130.313 102.625L133 103c-.148 6.933-3.35 11.015-8 16l-3 2 .875-1.625c1.292-2.728 2.19-5.508 3.125-8.375l1-2-5 2v4c-5 4-5 4-9 4l1.793-1.977 2.395-2.648 2.5-2.75c1.792-2.034 3.405-4.067 5-6.25C127 103 127 103 130.313 102.625z" fill="#135696"/><path d="M60 115l7 6v4l5 1v5l-4.875-.437-2.742-.246C62 130 62 130 60 129v-14z" fill="#0a2671"/><path d="M95 46h3c1.43 1.793 1.43 1.793 2.875 4.188 1.813 2.882 3.52 5.411 6 7.75L109 60v2c4.465-1.364 6.21-3.344 9-7h2l1-5c2 2 2 2 2.625 4.313C123 57 123 57 121.281 58.367a107.99 107.99 0 0 1-4.336 2.52c-2.09 1.083-2.09 1.083-3.945 3.113-3.246.107-5.055.135-8-1-2.386-2.363-3.898-5.068-5.5-8l-1.336-2.273C95 47.283 95 47.283 95 46z" fill="#b23764"/><path d="M40 69c4.606 1.247 7.142 2.696 10.375 6.188 2.841 2.98 5.685 5.821 8.813 8.5C62.632 86.642 65.831 89.752 69 93l-1 2c-10.082-7.174-19.665-15.832-28-25v-1z" fill="#66303c"/><path d="M92 115l2 1-1 13c-4.12 1.292-7.668 2.263-12 2l2-3-2-2 5-1 .188-2.187c1.057-3.659 3.018-5.305 5.813-7.812z" fill="#061d65"/><path d="M38.375 89.875L40 91c-1.651 4.292-4.738 6.879-8 10l-5-2 .063-2.812c.095-3.21.095-3.21-1.062-6.187l1.625.625c2.521.592 2.521.592 5.375-.687 3-.937 3-.937 5.375-.062z" fill="#0999df"/><path d="M107 67l2 1c-1.573 3.778-3.943 6.242-6.812 9.125l-2.582 2.633C97.067 81.942 95.195 83.075 92 84c-2.312-.375-2.312-.375-4-1 1.363-3.257 2.63-4.721 5.66-6.508l2.154-1.301 2.248-1.316 4.41-2.633 1.977-1.161c1.715-1.013 1.715-1.013 2.551-3.082z" fill="#04051d"/><path d="M47 116h9c.961 2.882 1.106 4.699 1.063 7.688l-.027 2.449L57 128l-7-3v-2l-4-1 1-6z" fill="#2776b9"/><path d="M57.953 130.453c9.582 2.56 20.21 1.651 30.047 1.547-3.291 2.194-4.195 2.232-8 2.16l-2.937-.033-3.062-.064-6-.09-2.687-.054c-2.473-.022-2.473-.022-5.312 1.082l-3-1v2l-9-3v-3c3.829-1.16 6.192-.736 9.953.453z" fill="#4e6c98"/><path d="M61 83c4.533 1.639 7.967 4.007 11.816 6.855 2.073 1.334 2.073 1.334 4.203.984 2.984-1.265 5.508-3.057 8.176-4.879L87 85l2 1-4.812 4.938-2.707 2.777C79 96 79 96 76 97c-10.558-9.41-10.558-9.41-15-14z" fill="#5cb1c1"/><path d="M123 89v2l3-1 1 2-2 1v5l-4-2 1 5-3.375-2.75-1.898-1.547c-1.81-1.785-2.728-3.383-3.727-5.703 3.725-2.661 5.579-3.39 10-2z" fill="#0a5eb3"/><path d="M44 68c4.041 1.927 7.889 4.178 11.75 6.438l2.113 1.197C59.628 76.672 61.321 77.829 63 79v3l-2 1 2 3c-4.041-1.646-6.933-4.492-10.062-7.437l-1.604-1.486L47 73l-1.871-1.723C44 70 44 70 44 68z" fill="#0a081a"/><path d="M53 93l2.188.563c2.784.666 2.784.666 5.188-.437C63 93 63 93 64.871 94.488L70 100l-3 2-4-2-2 3-4-3.875-2.25-2.18C53 95 53 95 53 93z" fill="#76c9ed"/><path d="M91 44c2.724 2.353 3.814 4.625 5 8l-4-1-.75 1.813C89.78 55.384 88.569 56.532 86 58c-2.75.188-2.75.188-5 0 .576-3.568 1.87-5.252 4.438-7.75l1.871-1.859C89 47 89 47 91 47v-3z" fill="#0168dc"/><path d="M138 66h1v21h-2c-1.637 1.96-1.637 1.96-3 4l-2-1 .813-6.812.457-3.832c.75-3.443 1.208-4.155 3.73-6.355.73-3.61.73-3.61 1-7z" fill="#2875b5"/><path d="M119 64c0 3.58-.925 4.234-3 7v3l-2 3h-4c-5.961 3.188-10.353 8.167-15 13l-2-1 9.625-9.687 2.738-2.764c4.392-4.408 8.75-8.693 13.637-12.549z" fill="#a4d7eb"/><path d="M84 28h2l4 6 5 5c3.344 3.833 6.257 7.732 9 12l-1 2a141.4 141.4 0 0 1-5-5v-2l-1.839-.277c-2.72-.91-3.273-1.858-4.739-4.285l-1.328-2.164L88.75 37l-1.391-2.273C84 29.188 84 29.188 84 28z" fill="#dc6e3c"/><path d="M68 29l2 2-6.451 10.504-2.185 3.558-5.294 8.593-4.089 6.655-1.883 3.045-1.668 2.719L47 68h-2c1.714-5.111 4.659-9.38 7.563-13.875C57.861 45.837 62.989 37.465 68 29z" fill="#201a1f"/><path d="M41.5 92.625C44 93 44 93 47 96h-9v2h-2v2l-2 1c-.652 2.025-.652 2.025-1 4l3 1-2 4h-3c-1.422-1.68-1.422-1.68-2.75-3.875l-1.359-2.18L26 102l1-2 1 3 3.813-3.312 2.145-1.863c2.022-1.752 2.022-1.752 3.648-3.531C39 93 39 93 41.5 92.625z" fill="#052e6e"/><path d="M119 47l2 1c-.255 4.339-.545 6.475-3.437 9.813L115 60l-2 2h-4l-2-5 3.875-2 2.18-1.125C115 53 115 53 117 53l.438-1.875C118 49 118 49 119 47z" fill="#ca4a5c"/><path d="M111 26c6.148 1.206 8.352 2.916 12 8l-4-1v3c-5.04-.445-7.376-2.713-11-6l3-4z" fill="#c9e4ef"/><path d="M106 100v10l-8 2-1 16h-1c-1.377-16.715-1.377-16.715 1.969-22.266C103.814 100 103.814 100 106 100z" fill="#7cb8de"/><path d="M100 130l1 3h-2l-1 3c-4.075 1.489-7.665 2.263-12 2 .75-4.75.75-4.75 3-7 3.746-.694 7.186-1 11-1z" fill="#0b286b"/><path d="M58 110l2 3 4 1c2.456 1.984 3.845 4.069 5 7v4h-2l-.687-2.25c-1.376-3.396-1.376-3.396-6.312-6.75l-1 13c-5.933-.989-8.143-1.989-13-5l4-1v2l2.875.938C56 127 56 127 58 128v-18z" fill="#0e1531"/><path d="M44 98h1l.063 7.625.025 2.16c.019 4.188-.261 8.088-1.088 12.215-2.913-.086-4.568-.579-6.668-2.625A127.43 127.43 0 0 1 33 112l2-1 1 2 5-1v-2h3V98z" fill="#083a7e"/><path d="M20 66h1v7l4-1 2 3h-5v12h2l1.063 4.25.598 2.391c.355 2.463.109 4.015-.66 6.359-5.298-11.318-5.238-21.757-5-34z" fill="#143358"/><path d="M50 62l1 2-1 2 4 1-5 1v2l3.625 1.063C59.417 73.301 65.67 76.714 72 80l-4 1-1-2-3.312-.125C57.269 78.267 51.782 74.097 47 70c0-3.576 1.088-5.053 3-8z" fill="#6cc2ce"/><path d="M112 79h2c-.821 5.785-5.63 9.535-10 13-2.601.972-4.189 1.06-7 1 7.284-8.686 7.284-8.686 11-12h3l1-2z" fill="#57b1db"/><path d="M109 103h1v7h2v2l5 1v-3l3 1c-1.558 3.824-3.916 6.292-7 9h-3c-1.187-3.56-1.097-6.438-1.062-10.187l.027-3.855L109 103z" fill="#041551"/><path d="M90 93c2.25.25 2.25.25 4 1-1.477 3.452-3.438 5.65-6.125 8.25l-2.195 2.141L84 106l-4-2 6-7 2.125-2.5L90 93z" fill="#62b8e8"/><path d="M38 118c6.328 3.577 6.328 3.577 9.375 5.496C52.759 126.87 57.868 129.311 64 131c-4.172 1.323-6.847.23-11-1l-2 1-3-1v2l-4-2 3-5-2.25-.812c-2.641-1.14-4.606-2.281-6.75-4.187v-2z" fill="#5c81ab"/><path d="M23 76c4.59 2.295 6.072 3.9 9 8l-1 3h-8V76z" fill="#18b6e1"/><path d="M24 110c6.45.263 9.479 2.507 14 7-2 1-2 1-6 1l-1-2-2 1 8 8c-3 0-3 0-4.719-1.32C24 115.289 24 115.289 24 110z" fill="#3591c5"/><path d="M40 100c.813 2.188.813 2.188 1 5-2.25 2.813-2.25 2.813-5 5h-3l3-4-4-1c1.802-5.02 2.656-6.603 8-5z" fill="#1a579a"/><path d="M96 74l2 1-9.937 6.5-2.865 1.879-2.725 1.777-2.523 1.65C78 88 78 88 77 88v-5l2 1 .664-1.867c1.813-2.895 3.495-3.232 6.711-4.258 4.022-1.299 4.022-1.299 7.852-3.055L96 74z" fill="#1150ad"/><path d="M46 99c7.875 6.75 7.875 6.75 11 11-6.875-1.875-6.875-1.875-8-3-1.416 2.833-1.346 5.475-1.562 8.625l-.254 3.602L47 122h-1V99z" fill="#a8c4d5"/><path d="M115 99c3.714 1.238 4.774 2.852 7 6v2l-2 1-1 3-3.5-2.812-1.969-1.582C112 105 112 105 112 102h2l1-3z" fill="#09256f"/><path d="M119 33c5.667 1.318 7.664 3.487 11 8l-1 2-2-2-2.312.063c-3.359-.078-4.993-1.117-7.687-3.062l-1-2h3v-3z" fill="#afd5e7"/><path d="M41 91c6.646 2.462 6.646 2.462 8.438 5.188L50 98h-4v25l-4-2 2-1 .5-11.375.145-3.273.137-3.125.127-2.888L45 95l-5-2 1-2z" fill="#030e35"/><path d="M111 120l2 1c-4.532 6.086-4.532 6.086-10 7-2.566 1.02-5.077 2.131-7.598 3.258C93 132 93 132 89 131l8-2v-4l3-1v2c4.093-1.653 7.59-3.135 11-6z" fill="#6f7f9f"/><path d="M127 75l2 1-5.129 5.125-4.496 4.563C117.03 87.971 114.59 90.002 112 92c0-4.351.765-5.518 3.574-8.691 1.922-1.764 3.999-2.398 6.426-3.309l5-5z" fill="#021a56"/><path d="M132 67v6l-2.562.563C124.905 75.458 122.253 78.4 119 82l-3-1 6.875-7 1.973-2.023 1.895-1.914 1.746-1.777C130 67 130 67 132 67z" fill="#010117"/><path d="M69 107l4 1v-1h7c-2.39 3.243-4.205 5.509-8 7l1 5c-3.324-4.335-4.12-6.471-4-12z" fill="#3e9ed0"/><path d="M61 78c4.485.656 8.669 1.701 13 3v2l3 1v4c-3.937-1.432-7.289-3.303-10.812-5.562l-2.957-1.879L61 79v-1z" fill="#16b5ed"/><path d="M126 59c.711 1.738.711 1.738 1 4-1.398 2.105-1.398 2.105-3.375 4.188l-1.961 2.105c-2.638 2.706-2.638 2.706-5.227 2.77L114 72c3.563-5.092 7.047-9.227 12-13z" fill="#84d2f5"/><path d="M99 64c2 1 2 1 5 3l1-2 2 4c-6.673 5.223-13.621 8.509-22 10 3.296-2.703 6.756-4.419 10.625-6.187l3.477-1.605C102 70 102 70 104 70v-2l-2.375-.375C99 67 99 67 97 65l2-1z" fill="#478eb5"/><path d="M122 88h6c.196 4.219-.198 7.17-2 11h-2l-1 4c-1.461-2.647-2-3.894-2-7h3c.714-2.468.714-2.468 1-5h-2l-1-3z" fill="#043388"/><path d="M128 44c4.306 1.435 5.981 4.349 8.313 8.125C137 54 137 54 136 57l-2-4-1 2h-2l1-6-4 3c-1.125-2.312-1.125-2.312-2-5l2-3z" fill="#7cc0e5"/><path d="M133 52l3 3v2h2l1 7-3-4-1.375 1.5C133 63 133 63 131 63c-.286-7.429-.286-7.429 2-11z" fill="#5baddd"/><path d="M104 29c5.25 2.73 9.189 5.426 13 10-.344 2.188-.344 2.188-1 4l-8-8-2.266-2.141C104 31 104 31 104 29z" fill="#b43b47"/><path d="M127 116c0 3.686-.852 5.038-3 8l-5 3c-2.293 1.958-2.293 1.958-4 4v2h-5l-1-2 1.652-.996c6.271-3.956 11.28-8.612 16.348-14.004z" fill="#021a44"/><path d="M117 40l4 4v2h2l4 9-3 2-2.937-5.687-1.652-3.199c-1.257-2.776-1.971-5.116-2.41-8.113z" fill="#5b1651"/><path d="M33 75h6l.813 1.875C40.956 79.3 40.956 79.3 44 81l2 2-4 2-4.5-4.437-2.531-2.496C33 76 33 76 33 75z" fill="#b4e1eb"/><path d="M77 115c2.313 3.469 2.425 4.922 2 9-1.5 1.875-1.5 1.875-3 3-2.313-3.469-2.425-4.922-2-9 1.5-1.875 1.5-1.875 3-3z" fill="#1a76b0"/><path d="M71 112l10 1v6l-2 2-2-4c-2.331.959-2.331.959-4 4l-2-9z" fill="#2581bf"/><path d="M22 106c4.507.53 7.454 2.196 11 5v3l-2-2a89.9 89.9 0 0 0-6-1l1 4-3-2c-.687-3.625-.687-3.625-1-7z" fill="#569ecd"/><path d="M64 95l6 5-3 2-4-2-2 3-2-2c.375-2.125.375-2.125 1-4l3 1 1-3z" fill="#6dc0eb"/><path d="M95 46h3c1.535 1.793 1.535 1.793 3.063 4.188l1.535 2.355c1.405 2.461 2.548 4.754 3.402 7.457l-1 3-5-7.937-1.445-2.287-1.367-2.178-1.27-2.015C95 47 95 47 95 46z" fill="#983046"/><path d="M84 25c5.415-.369 5.415-.369 8.375 1.5L94 28h-4l1 5-5-3v-2h-2v-3z" fill="#fcae47"/><path d="M94 107h3l-1 21h-1l-.078-2.773-.172-3.602-.141-3.586c-.266-3.152-.266-3.152-2.656-4.453L90 113l4-6z" fill="#222540"/><path d="M75 57l3 1-1 24 4-1-2 4-5-2 2-1-1-25z" fill="#6090b0"/><path d="M17 96h7l2.063 3.875 1.16 2.18L28 104l-1 2-1.125-2.5L24 101c-3.126-.417-3.126-.417-6 0l-1-5z" fill="#85bee2"/><path d="M87 85l2 1-4.875 5-2.742 2.813C79 96 79 96 77 96c.304-3.245.563-4.619 3.066-6.801l2.496-1.512 2.504-1.551L87 85z" fill="#2b6ab2"/><path d="M44 68c2.869 1.383 5.56 2.921 8.25 4.625l2.141 1.352L56 75l-4 3-4-3.875-2.25-2.18C44 70 44 70 44 68z" fill="#130f1f"/><path d="M107 102h1l.402 3.141.535 4.109.264 2.066c.43 3.284.887 6.495 1.799 9.684l-4 2v-21z" fill="#030626"/><path d="M103 97l3 1c-1.382 3.21-2.924 5.049-5.625 7.25l-1.914 1.578L97 108l-1-2 7-9z" fill="#0e1235"/><path d="M36 89v3l-3 1c-1.209 2-1.209 2-2 4h-3l2-4h-4v-3l1.625.625c3.208.506 5.388-.471 8.375-1.625z" fill="#1fb3e3"/><path d="M60 113c3.282.566 4.892 1.413 7 4 1.891 3.086 2 4.173 2 8h-2l-.687-2.25C64.756 119.489 62.8 118.21 60 116v-3z" fill="#01124c"/><path d="M89 114h3c-1.001 2.232-1.777 3.803-3.625 5.438-1.647 1.554-1.647 1.554-1.562 4.25L87 126h-6l4-7h2l2-5z" fill="#010a41"/><path d="M47 116h9l1 7-1-3-2.312-.437C51 119 51 119 48 118v5l-2-1 1-6z" fill="#418ac4"/><path d="M62 86c3.532.574 5.129 1.794 7.563 4.375l1.754 1.836L73 94l3 3-3 1-5.5-5.437-1.59-1.564L62 87v-1z" fill="#090f28"/><path d="M106 63h3v3c2.929-.628 5.361-1.586 8-3l-1 5c-3.287.8-4.71 1.097-8 0-1.187-2.562-1.187-2.562-2-5z" fill="#772959"/><path d="M101 128c2 1 2 1 3 3h5c-1.625 2-1.625 2-4 4-3.25.25-3.25.25-6 0l1-5-2-1 3-1z" fill="#0a4388"/><path d="M33 111h2l1 2h6v7c-3.976-2.099-6.396-4.334-9-8v-1z" fill="#0e245d"/><path d="M49 106c3 1 5.325 2.337 8 4l-1 4v-3c-4.646.485-4.646.485-9 2 .875-5.875.875-5.875 2-7z" fill="#74bbe9"/><path d="M93 38c4.818 3.585 8.53 7.432 11 13l-1 2c-4.187-3.828-7.378-7.946-10-13v-2z" fill="#e36c44"/><path d="M107 21c6.875 3.75 6.875 3.75 8 6l-2.25.438L106 29c0-2.84.403-5.237 1-8z" fill="#d9ebf2"/><path d="M60 115l7 6c-1.477 4.677-1.477 4.677-4.125 6.313L61 128l3-5h-3v-2h2l-1.5-1.875C60 117 60 117 60 115z" fill="#224e8f"/><path d="M106 99h1l.125 7.875.051 2.262L107 115c-2.262 2.262-3.97 3.039-7 4l-3-1c6.75-4 6.75-4 9-4V99z" fill="#3877ab"/><path d="M90 99l2 1c-.176 2.379-.697 3.702-2.402 5.379L85 109c-.684-1.797-.684-1.797-1-4 1.215-1.703 1.215-1.703 2.938-3.25l1.715-1.578L90 99z" fill="#3aa7d7"/><path d="M45 83l4 2v4l3 1-3 2-3-2.875-1.687-1.617C43 86 43 86 43 84l2-1z" fill="#8acde0"/><path d="M115 29l8 4-2 1-2-1v3l-5-1c0-3 0-3 1-6z" fill="#b7e0f0"/><path d="M63 133h4l-1 5c-2.812.688-2.812.688-6 1-1.875-1.312-1.875-1.312-3-3v-2l2.438.063c2.496.234 2.496.234 3.563-1.062z" fill="#093981"/><path d="M92 115l2 1-4 4 2 1v3h-2l1 3h-2l-3-4c1.443-3.366 3.333-5.51 6-8z" fill="#123179"/><path d="M92 83c0 3 0 3-2 5.188L88 90l-3-1 2-3-4 2c2.184-4.836 3.794-5.137 9-5z" fill="#0d142d"/><path d="M137 81h2v6h-2c-1.637 1.96-1.637 1.96-3 4l-2-1c2.75-6.75 2.75-6.75 5-9z" fill="#1a62a8"/><path d="M109 68l4 2-8 8-2-3 6-7z" fill="#371646"/><path d="M119 52l2 1-3.187 3.938-1.793 2.215c-2.345 2.145-3.903 2.509-7.02 2.848 1.932-3.671 3.219-5.346 7-7 1.709-1.541 1.709-1.541 3-3z" fill="#c04161"/><path d="M80 22c4.548-.178 7.879.002 12 2v2l-8-1-1 3-3-6z" fill="#d45a3b"/><path d="M119 74c-.398 2.886-.79 3.822-3.062 5.75L114 81v-2h-2l-1 3-2-2 3.875-3 2.18-1.687C117 74 117 74 119 74z" fill="#64bee5"/><path d="M136 58c1.125 1.688 1.125 1.688 2 4-.875 2.75-.875 2.75-2 5h-2l-1 2v-8l3-1v-2z" fill="#4493cd"/><path d="M75 41h1l.188 7.313.076 2.092c.074 5.109.074 5.109-1.607 7.533C72.502 59.32 70.517 59.66 68 60l2-1v-2h3l2-16z" fill="#31d3f0"/><path d="M44 19l3 2-12 7v-3c2.93-2.735 5.177-4.726 9-6z" fill="#102346"/><path d="M130 61l1 2h2c.84 4.353 1.108 8.444 1.063 12.875l-.027 3.492L134 82h-1l-2-17h-3l2-4z" fill="#8dc0dc"/><path d="M116 43l2 1c-.306 3.674-.758 4.781-3.562 7.313L112 53c0-3.418.759-5.83 2-9l2-1z" fill="#df5d53"/><path d="M40 33l2 1-1.355 1.285c-3.143 3.049-5.986 6.027-8.457 9.652L30 48h-2c1.416-3.149 3.137-5.495 5.438-8.062l1.809-2.035C36.793 36.225 38.372 34.598 40 33z" fill="#2b3a5b"/><path d="M92.188 93.313L94 94c-1.393 3.367-2.979 4.986-6 7-.687-2.312-.687-2.312-1-5 1.582-2.497 2.212-3.113 5.188-2.687z" fill="#74c5ed"/><path d="M63 92c4.919 4.116 9.526 8.404 14 13l-2 1c-3.848-1.283-3.948-2.58-6-6-1.038-1.086-2.102-2.148-3.187-3.187L63 94v-2z" fill="#abcee2"/><path d="M100 87c0 3 0 3-1.312 4.387L94 95l-2-3c2.353-2.724 4.625-3.814 8-5z" fill="#80cef1"/><path d="M40 69c4.847 1.278 7.45 2.992 10.875 6.625l2.367 2.477L55 80c-3 0-3 0-4.43-1.207l-1.445-1.605C46.633 74.546 44.165 72.808 41 71l-1-2z" fill="#a9543e"/><path d="M60 131v1l-4.875 1.063-2.742.598C50 134 50 134 48 133v-3c4.517-1.369 7.588-.471 12 1z" fill="#0c468d"/><path d="M133 98h2v8l-2 2v-5l-5 1 1-4h3l1-2z" fill="#0a488b"/><path d="M13 85h2l1.563 3.875.879 2.18C18 93 18 93 17 95l-3-1-1-9z" fill="#a8cbe0"/><path d="M129 75h1v7h-7l2.938-3.5 1.652-1.969L129 75z" fill="#04429c"/><path d="M57 75c5.774.481 9.959 2.185 15 5l-4 1-1-2c-2.026-.225-4.055-.444-6.09-.559C59 78 59 78 57 75z" fill="#53c9db"/><path d="M45 62l3 1-4 7-5-2 6-6z" fill="#ed9a47"/><path d="M47 125c-1.75 3.875-1.75 3.875-4 5l-4-4c3.067-1.862 4.597-2.215 8-1z" fill="#12579d"/><path d="M117 110l3 1c-1.491 3.795-3.757 5.61-7 8v-5l4-1v-3z" fill="#0f1746"/><path d="M112 79h2c-.556 3.599-1.749 4.999-4.562 7.25l-1.941 1.578L106 89v-4h3v-4h2l1-2z" fill="#55b2d7"/><path d="M34 116l-1 1 5 1c-2 2-2 2-4.437 2.375C31 120 31 120 29.188 118L28 116c3-1 3-1 6 0z" fill="#2674b6"/><path d="M115 89l4 1v2h-2l1 5-5-4 2-4z" fill="#0d68b8"/><path d="M99 124l1 2 2 1-4 1v2c-3.805 1.797-4.706 2.073-9 1l8-2v-4l2-1z" fill="#50648c"/><path d="M60 117l3 2v2h-2v2h3c-1.75 3.875-1.75 3.875-4 5v-11z" fill="#031c5a"/><path d="M122 109c1 2 1 2 .938 3.875-1.452 3.291-3.87 4.407-6.937 6.125h-3l9-10z" fill="#6d81a6"/><path d="M67 101l5 1v4l2 3c-3.795-1.491-5.61-3.757-8-7l1-1z" fill="#5ab4e4"/><path d="M46 98c4.517-.366 4.517-.366 6.813 1.375C54 101 54 101 54 103l-3 1-5-6z" fill="#0e1639"/><path d="M28 93h2l-1 4h4l-1 4-5-2v-5l1-1z" fill="#098cd6"/><path d="M41 91c6.646 2.462 6.646 2.462 8.438 5.188L50 98h-4v5h-1v-8l-5-2 1-2z" fill="#021543"/><path d="M91 44c2.724 2.353 3.814 4.625 5 8l-4-1-2 4c0-3 0-3 .5-4.937.657-2.357.657-2.357.5-6.062z" fill="#197ace"/><path d="M36 123h8l-4 4 1 2c-1.937-.75-1.937-.75-4-2-.75-2.125-.75-2.125-1-4z" fill="#176eaf"/><path d="M117 92c1.938.688 1.938.688 4 2 .936 2.879 1.372 4.255 0 7-2.523-1.974-2.993-2.967-3.687-6.187L117 92z" fill="#084aa2"/><path d="M93 117v11l-3-2v-2h2v-3l-3-1c2.875-3 2.875-3 4-3z" fill="#02104e"/><path d="M50 123h7v5l-7-3v-2z" fill="#1d63a6"/><path d="M26 100l2 1v2h3l2 8c-3.827-3.424-5.723-6.007-7-11z" fill="#12204a"/><path d="M25 91l3 1-.187 3.313c-.168 3.609-.168 3.609 1.688 5.625L31 102l-3 1c-3.429-7.286-3.429-7.286-3-12z" fill="#0562ac"/><path d="M89 88l2 1c-1.393 3.367-2.979 4.986-6 7l-1-3 5-5z" fill="#2c1048"/><path d="M23 76l4 2v3h-3v5h-1V76z" fill="#0895cd"/><path d="M31 45c1 2 1 2 .441 4.164l-.879 2.461-.871 2.477L29 56l-3-1 5-10z" fill="#ce5633"/><path d="M121 35c4.875 2.75 4.875 2.75 6 5-4.75 1.125-4.75 1.125-7 0l1-5z" fill="#a0d8f3"/><path d="M68 29l2 2-6 10-2-2 6-10z" fill="#2a2426"/><path d="M25 36l2 1-2.937 4.5-1.652 2.531L21 46h-1c-.312-2.187-.312-2.187 0-5 2.5-2.812 2.5-2.812 5-5z" fill="#0f2349"/><path d="M121 102l4 2c-1.25 3.653-1.671 4.781-5 7l-1-4h3l-1-5z" fill="#090f3d"/><path d="M39 99v3l-1.937.875c-2.215.953-2.215.953-3.062 3.125l-2-1c2.154-6 2.154-6 7-6z" fill="#3a8fbb"/><path d="M23 87c1.671 2.962 2.327 5.371 2.625 8.75l.227 2.422L26 100c-2.5-2.935-3.615-5.147-4-9 .438-2.312.438-2.312 1-4z" fill="#0e2f5f"/><path d="M70 91l8 1-1 5c-5.875-3.75-5.875-3.75-7-6z" fill="#27bbe3"/><path d="M104 56l5 4v2h2v2l-5-1-2-7z" fill="#ae3855"/><path d="M117 40c3.672 3.08 4.568 5.248 5 10-2.912-3.288-4.497-5.599-5-10z" fill="#8b254d"/><path d="M52 28c-1 3-1 3-4.062 4.688L45 34l-2-2c6.75-4 6.75-4 9-4z" fill="#d25e32"/><path d="M104 108l2 4-9 1 1-2 6-1v-2z" fill="#4498d0"/><path d="M35 83l7 6-1 3c-3.188-2.125-4.249-3.665-6-7v-2z" fill="#023a77"/><path d="M24 84h7v3h-8l1-3z" fill="#1faedf"/><path d="M119 64c0 3.575-.554 4.469-3 7-2.687.75-2.687.75-5 1l8-8z" fill="#a9d6e8"/><path d="M50 62l1 2-1 2 4 1-2.937.375L48 68l-1 2c0-3.576 1.088-5.053 3-8z" fill="#7bd3dc"/><path d="M50 58l2 2-2.375 4-1.336 2.25L47 68h-2c1.335-3.594 2.96-6.755 5-10z" fill="#261f25"/><path d="M95 46h3c4 5.257 4 5.257 4 8-3.291-1.135-3.996-1.993-5.75-5.125L95 46z" fill="#b84640"/><path d="M90 38h3c4 5.257 4 5.257 4 8-3.291-1.135-3.996-1.993-5.75-5.125L90 38z" fill="#cd593d"/><path d="M32 102l1 3 3 1-2 4c-1.562-1.187-1.562-1.187-3-3 .313-2.687.313-2.687 1-5z" fill="#0b3c86"/><path d="M115 99c3.399 1.133 4.053 2.125 6 5l-1 2-6-4 1-3z" fill="#2970ad"/><path d="M59 93l5 1-1 4-4-2v-3z" fill="#7fcff3"/><path d="M78 88v3l-3 1-4-4c2.667-1.333 4.167-.671 7 0z" fill="#11192c"/><path d="M61 78c3.735.498 5.812.875 9 3v2c-3.871-.574-6.082-2.487-9-5z" fill="#07c0ec"/><path d="M107 123c-1.25 1.5-1.25 1.5-3 3h-4l1-3c3-1 3-1 6 0z" fill="#14356e"/><path d="M100 91l3 1-4 4-4-2c2.313-1.562 2.313-1.562 5-3z" fill="#4aa5cf"/><path d="M25 88h7l1 2c-2.354 1.429-3.48 2.087-6.25 1.625L25 91v-3z" fill="#0196d6"/><path d="M54 87c1.938.375 1.938.375 4 1l1 2h-2v2l-4-2 1-3z" fill="#9ddef8"/><path d="M108 81l1 4h-3l-1 4-2-3 5-5z" fill="#64b9e9"/><path d="M39 80l7 2-3 3-4-3v-2z" fill="#9fd9e6"/><path d="M138 77l1 4-6 5c.813-2.937.813-2.937 2-6l3-1v-2z" fill="#226cae"/><path d="M126 59c.75 1.75.75 1.75 1 4-1.937 2.25-1.937 2.25-4 4 0-3.576 1.088-5.053 3-8z" fill="#7cc9f1"/><path d="M84 25h6l-3 1 2 6-3-2v-2h-2v-3z" fill="#f69140"/><path d="M19 100h5l1 3c-3 1-3 1-6 0v-3z" fill="#60ade0"/><path d="M137 86l1 2-4 6h-2c0-3 0-3 2.5-5.687L137 86z" fill="#1658a2"/></svg>